<mxfile host="65bd71144e" scale="1" border="20">
    <diagram id="QfNbS4WTmc70TRjz3PtT" name="第 1 页">
        <mxGraphModel dx="496" dy="680" grid="1" gridSize="10" guides="1" tooltips="1" connect="1" arrows="1" fold="1" page="1" pageScale="1" pageWidth="827" pageHeight="1169" background="#FFFFFF" math="0" shadow="0">
            <root>
                <mxCell id="0"/>
                <mxCell id="1" parent="0"/>
                <mxCell id="6" value="" style="edgeStyle=orthogonalEdgeStyle;orthogonalLoop=1;jettySize=auto;html=1;exitX=0.5;exitY=1;exitDx=0;exitDy=0;exitPerimeter=0;sketch=1;strokeColor=#09555B;fontColor=#1A1A1A;" parent="1" source="9" target="5" edge="1">
                    <mxGeometry relative="1" as="geometry">
                        <mxPoint x="330" y="120" as="sourcePoint"/>
                    </mxGeometry>
                </mxCell>
                <mxCell id="8" value="command" style="edgeStyle=orthogonalEdgeStyle;orthogonalLoop=1;jettySize=auto;html=1;sketch=1;strokeColor=#09555B;fontColor=#1A1A1A;" parent="1" source="5" target="7" edge="1">
                    <mxGeometry relative="1" as="geometry"/>
                </mxCell>
                <mxCell id="5" value="argParser" style="whiteSpace=wrap;html=1;absoluteArcSize=1;arcSize=14;strokeWidth=2;sketch=1;rounded=1;fillColor=#FAD9D5;strokeColor=#D0CEE2;fontColor=#1A1A1A;" parent="1" vertex="1">
                    <mxGeometry x="280" y="160" width="100" height="40" as="geometry"/>
                </mxCell>
                <mxCell id="13" value="" style="edgeStyle=orthogonalEdgeStyle;orthogonalLoop=1;jettySize=auto;html=1;sketch=1;strokeColor=#09555B;fontColor=#1A1A1A;" parent="1" source="7" target="12" edge="1">
                    <mxGeometry relative="1" as="geometry"/>
                </mxCell>
                <mxCell id="14" value="inputOptions" style="edgeLabel;html=1;align=center;verticalAlign=middle;resizable=0;points=[];sketch=1;rounded=1;fontColor=#1A1A1A;" parent="13" vertex="1" connectable="0">
                    <mxGeometry x="0.24" y="1" relative="1" as="geometry">
                        <mxPoint x="-1" y="-7.24" as="offset"/>
                    </mxGeometry>
                </mxCell>
                <mxCell id="7" value="run(command)" style="whiteSpace=wrap;html=1;absoluteArcSize=1;arcSize=14;strokeWidth=2;sketch=1;rounded=1;fillColor=#FAD9D5;strokeColor=#D0CEE2;fontColor=#1A1A1A;" parent="1" vertex="1">
                    <mxGeometry x="280" y="240" width="100" height="40" as="geometry"/>
                </mxCell>
                <mxCell id="9" value="rollup -c" style="strokeWidth=2;html=1;shape=mxgraph.flowchart.start_2;whiteSpace=wrap;sketch=1;rounded=1;fillColor=#FAD9D5;strokeColor=#D0CEE2;fontColor=#1A1A1A;" parent="1" vertex="1">
                    <mxGeometry x="287.5" y="100" width="85" height="40" as="geometry"/>
                </mxCell>
                <mxCell id="35" value="" style="edgeStyle=orthogonalEdgeStyle;orthogonalLoop=1;jettySize=auto;html=1;sketch=1;strokeColor=#09555B;fontColor=#1A1A1A;" parent="1" source="12" target="34" edge="1">
                    <mxGeometry relative="1" as="geometry"/>
                </mxCell>
                <mxCell id="12" value="build(inputOptions)" style="whiteSpace=wrap;html=1;absoluteArcSize=1;arcSize=14;strokeWidth=2;sketch=1;rounded=1;fillColor=#FAD9D5;strokeColor=#D0CEE2;fontColor=#1A1A1A;" parent="1" vertex="1">
                    <mxGeometry x="265" y="320" width="130" height="40" as="geometry"/>
                </mxCell>
                <mxCell id="32" value="" style="edgeStyle=orthogonalEdgeStyle;orthogonalLoop=1;jettySize=auto;html=1;sketch=1;strokeColor=#09555B;fontColor=#1A1A1A;" parent="1" source="28" target="31" edge="1">
                    <mxGeometry relative="1" as="geometry"/>
                </mxCell>
                <mxCell id="28" value="&lt;span&gt;const graph = new Graph(inputOptions)&lt;/span&gt;" style="whiteSpace=wrap;html=1;absoluteArcSize=1;arcSize=14;strokeWidth=2;sketch=1;rounded=1;fillColor=#FAD9D5;strokeColor=#D0CEE2;fontColor=#1A1A1A;" parent="1" vertex="1">
                    <mxGeometry x="217.5" y="460" width="225" height="40" as="geometry"/>
                </mxCell>
                <mxCell id="38" value="" style="edgeStyle=orthogonalEdgeStyle;orthogonalLoop=1;jettySize=auto;html=1;sketch=1;strokeColor=#09555B;fontColor=#1A1A1A;" parent="1" source="31" target="37" edge="1">
                    <mxGeometry relative="1" as="geometry"/>
                </mxCell>
                <mxCell id="31" value="graph.pluginDriver.hookParallel('buildStart', [inputOptions])" style="whiteSpace=wrap;html=1;absoluteArcSize=1;arcSize=14;strokeWidth=2;sketch=1;rounded=1;fillColor=#FAD9D5;strokeColor=#D0CEE2;fontColor=#1A1A1A;" parent="1" vertex="1">
                    <mxGeometry x="143.75" y="530" width="372.5" height="40" as="geometry"/>
                </mxCell>
                <mxCell id="36" value="" style="edgeStyle=orthogonalEdgeStyle;orthogonalLoop=1;jettySize=auto;html=1;sketch=1;strokeColor=#09555B;fontColor=#1A1A1A;" parent="1" source="34" edge="1">
                    <mxGeometry relative="1" as="geometry">
                        <mxPoint x="330" y="460" as="targetPoint"/>
                        <Array as="points">
                            <mxPoint x="330" y="460"/>
                            <mxPoint x="330" y="460"/>
                        </Array>
                    </mxGeometry>
                </mxCell>
                <mxCell id="34" value="rollup.rollup(inputOptions)" style="whiteSpace=wrap;html=1;absoluteArcSize=1;arcSize=14;strokeWidth=2;sketch=1;rounded=1;fillColor=#FAD9D5;strokeColor=#D0CEE2;fontColor=#1A1A1A;" parent="1" vertex="1">
                    <mxGeometry x="257.5" y="390" width="145" height="40" as="geometry"/>
                </mxCell>
                <mxCell id="40" value="" style="edgeStyle=orthogonalEdgeStyle;orthogonalLoop=1;jettySize=auto;html=1;sketch=1;strokeColor=#09555B;fontColor=#1A1A1A;" parent="1" source="37" target="39" edge="1">
                    <mxGeometry relative="1" as="geometry"/>
                </mxCell>
                <mxCell id="37" value="graph.pluginDriver.hookParallel('buildEnd', [])" style="whiteSpace=wrap;html=1;absoluteArcSize=1;arcSize=14;strokeWidth=2;sketch=1;rounded=1;fillColor=#FAD9D5;strokeColor=#D0CEE2;fontColor=#1A1A1A;" parent="1" vertex="1">
                    <mxGeometry x="143.75" y="600" width="372.5" height="40" as="geometry"/>
                </mxCell>
                <mxCell id="39" value="graph.pluginDriver.hookParallel('closeBundle', [])" style="whiteSpace=wrap;html=1;absoluteArcSize=1;arcSize=14;strokeWidth=2;sketch=1;rounded=1;fillColor=#FAD9D5;strokeColor=#D0CEE2;fontColor=#1A1A1A;" parent="1" vertex="1">
                    <mxGeometry x="143.75" y="670" width="372.5" height="40" as="geometry"/>
                </mxCell>
            </root>
        </mxGraphModel>
    </diagram>
</mxfile>
